<svg width="24" height="24" viewBox="0 0 24 24" fill="none" xmlns="http://www.w3.org/2000/svg"><path fill-rule="evenodd" clip-rule="evenodd" d="M6.13381 8.81147C6.5743 8.77967 6.95723 9.11085 6.98928 9.55133L7.47722 16.2583V16.2871C7.47722 17.5789 8.54386 18.6396 9.86669 18.6396H14.1439C15.4711 18.6396 16.5334 17.5797 16.5334 16.2871V16.2588L17.0118 9.55253C17.0432 9.112 17.4257 8.78029 17.8662 8.81147C18.3071 8.84268 18.6392 9.22552 18.6077 9.66639L18.1332 16.317C18.117 18.4885 16.332 20.2334 14.1439 20.2334H9.86669C7.68478 20.2334 5.89393 18.4896 5.87734 16.3175L5.39353 9.66743C5.36146 9.2266 5.69296 8.84329 6.13381 8.81147Z" fill="currentColor"/><path fill-rule="evenodd" clip-rule="evenodd" d="M20 6.6875C20 7.1276 19.6432 7.48438 19.2031 7.48438H4.79688C4.35677 7.48438 4 7.1276 4 6.6875C4 6.2474 4.35677 5.89062 4.79688 5.89062H19.2031C19.6432 5.89062 20 6.2474 20 6.6875Z" fill="currentColor"/><path fill-rule="evenodd" clip-rule="evenodd" d="M10.4001 10.9375C10.8419 10.9375 11.2001 11.2957 11.2001 11.7375L11.2001 15.45C11.2001 15.8918 10.8419 16.25 10.4001 16.25C9.95827 16.25 9.6001 15.8918 9.6001 15.45L9.6001 11.7375C9.6001 11.2957 9.95827 10.9375 10.4001 10.9375Z" fill="currentColor"/><path fill-rule="evenodd" clip-rule="evenodd" d="M13.6 10.9375C14.0419 10.9375 14.4 11.2957 14.4 11.7375L14.4 15.45C14.4 15.8918 14.0419 16.25 13.6 16.25C13.1582 16.25 12.8 15.8918 12.8 15.45L12.8 11.7375C12.8 11.2957 13.1582 10.9375 13.6 10.9375Z" fill="currentColor"/><path fill-rule="evenodd" clip-rule="evenodd" d="M9.62837 4.31712C9.79802 3.97905 10.1439 3.76562 10.5221 3.76562H13.4774C13.8556 3.76562 14.2015 3.979 14.3711 4.31701L15.3821 6.33113L13.9511 7.04387L13.1055 5.35938H10.8941L10.0488 7.04379L8.61768 6.33121L9.62837 4.31712Z" fill="currentColor"/></svg>